<?xml version="1.0" encoding="UTF-8"?>
<svg width="472px" height="415px" viewBox="0 0 472 415" version="1.1" xmlns="http://www.w3.org/2000/svg" xmlns:xlink="http://www.w3.org/1999/xlink">
    <title>heart</title>
    <g id="Page-1" stroke="none" stroke-width="1" fill="none" fill-rule="evenodd">
        <g id="Artboard" fill="#FF0000" fill-rule="nonzero">
            <g id="heart" transform="translate(-0.000000, 0.000000)">
                <path d="M433.601089,38.5 C408.901089,13.8 376.201089,0.3 341.301089,0.3 C306.401089,0.3 273.601089,13.9 248.901089,38.6 L236.001089,51.5 L222.901089,38.4 C198.201089,13.7 165.301089,0 130.401089,0 C95.6010892,0 62.8010892,13.6 38.2010892,38.2 C13.5010892,62.9 -0.0989108159,95.7 0.000541612382,130.6 C0.000541612382,165.5 13.7010892,198.2 38.4010892,222.9 L226.201089,410.7 C228.801089,413.3 232.301089,414.7 235.701089,414.7 C239.101089,414.7 242.601089,413.4 245.201089,410.8 L433.401089,223.3 C458.101089,198.6 471.701641,165.8 471.701641,130.9 C471.801089,96 458.301089,63.2 433.601089,38.5 Z" id="Shape"></path>
            </g>
        </g>
    </g>
</svg>