<?xml version="1.0" encoding="UTF-8"?>
<svg width="472px" height="415px" viewBox="0 0 472 415" version="1.1" xmlns="http://www.w3.org/2000/svg" xmlns:xlink="http://www.w3.org/1999/xlink">
    <title>Artboard</title>
    <g id="Artboard" stroke="none" stroke-width="1" fill="none" fill-rule="evenodd">
        <g id="heart" transform="translate(-0.000000, 0.000000)" fill="#000000" fill-rule="nonzero">
            <path d="M433.601089,38.5 C408.901089,13.8 376.201089,0.3 341.301089,0.3 C306.401089,0.3 273.601089,13.9 248.901089,38.6 L236.001089,51.5 L222.901089,38.4 C198.201089,13.7 165.301089,0 130.401089,0 C95.6010892,0 62.8010892,13.6 38.2010892,38.2 C13.5010892,62.9 -0.0989108159,95.7 0.000541612382,130.6 C0.000541612382,165.5 13.7010892,198.2 38.4010892,222.9 L226.201089,410.7 C228.801089,413.3 232.301089,414.7 235.701089,414.7 C239.101089,414.7 242.601089,413.4 245.201089,410.8 L433.401089,223.3 C458.101089,198.6 471.701641,165.8 471.701641,130.9 C471.801089,96 458.301089,63.2 433.601089,38.5 Z M414.401089,204.2 L235.701089,382.2 L57.4010892,203.9 C37.8010892,184.3 27.0010892,158.3 27.0010892,130.6 C27.0010892,102.9 37.7010892,76.9 57.3010892,57.4 C76.8010892,37.9 102.801089,27.1 130.401089,27.1 C158.101089,27.1 184.201089,37.9 203.801089,57.5 L226.401089,80.1 C231.701089,85.4 240.201089,85.4 245.501089,80.1 L267.901089,57.7 C287.501089,38.1 313.601089,27.3 341.201089,27.3 C368.801089,27.3 394.801089,38.1 414.401089,57.6 C434.001089,77.2 444.701777,103.2 444.701777,130.9 C444.801089,158.6 434.001089,184.6 414.401089,204.2 Z" id="Shape"></path>
        </g>
    </g>
</svg>